<svg xmlns="http://www.w3.org/2000/svg" width="1200" height="630" viewBox="0 0 1200 630" role="img" aria-labelledby="title desc">
  <title id="title">Few Channels Draw The Whole Picture</title>
  <desc id="desc">Social preview image for a project page about massive activations in Diffusion Transformers.</desc>
  <rect width="1200" height="630" fill="#fbfaf7"/>
  <path d="M0 0h1200v10H0z" fill="#111110"/>
  <path d="M0 10h420v10H0z" fill="#d45c00"/>
  <path d="M420 10h390v10H420z" fill="#007078"/>
  <path d="M810 10h390v10H810z" fill="#52337c"/>
  <g opacity=".12" stroke="#111110">
    <path d="M0 90h1200M0 150h1200M0 210h1200M0 270h1200M0 330h1200M0 390h1200M0 450h1200M0 510h1200M0 570h1200"/>
    <path d="M90 0v630M150 0v630M210 0v630M270 0v630M330 0v630M390 0v630M450 0v630M510 0v630M570 0v630M630 0v630M690 0v630M750 0v630M810 0v630M870 0v630M930 0v630M990 0v630M1050 0v630M1110 0v630"/>
  </g>
  <g transform="translate(800 116) rotate(-18)">
    <rect x="0" y="0" width="285" height="285" rx="18" fill="#ffffff" stroke="#ddd9ce"/>
    <g transform="translate(24 24)">
      <rect x="0" y="0" width="34" height="34" rx="4" fill="#dfddd4"/><rect x="42" y="0" width="34" height="34" rx="4" fill="#d45c00"/><rect x="84" y="0" width="34" height="34" rx="4" fill="#dfddd4"/><rect x="126" y="0" width="34" height="34" rx="4" fill="#007078"/><rect x="168" y="0" width="34" height="34" rx="4" fill="#dfddd4"/><rect x="210" y="0" width="34" height="34" rx="4" fill="#dfddd4"/>
      <rect x="0" y="42" width="34" height="34" rx="4" fill="#007078"/><rect x="42" y="42" width="34" height="34" rx="4" fill="#dfddd4"/><rect x="84" y="42" width="34" height="34" rx="4" fill="#d45c00"/><rect x="126" y="42" width="34" height="34" rx="4" fill="#dfddd4"/><rect x="168" y="42" width="34" height="34" rx="4" fill="#dfddd4"/><rect x="210" y="42" width="34" height="34" rx="4" fill="#52337c"/>
      <rect x="0" y="84" width="34" height="34" rx="4" fill="#dfddd4"/><rect x="42" y="84" width="34" height="34" rx="4" fill="#dfddd4"/><rect x="84" y="84" width="34" height="34" rx="4" fill="#007078"/><rect x="126" y="84" width="34" height="34" rx="4" fill="#d45c00"/><rect x="168" y="84" width="34" height="34" rx="4" fill="#dfddd4"/><rect x="210" y="84" width="34" height="34" rx="4" fill="#dfddd4"/>
      <rect x="0" y="126" width="34" height="34" rx="4" fill="#d45c00"/><rect x="42" y="126" width="34" height="34" rx="4" fill="#dfddd4"/><rect x="84" y="126" width="34" height="34" rx="4" fill="#dfddd4"/><rect x="126" y="126" width="34" height="34" rx="4" fill="#007078"/><rect x="168" y="126" width="34" height="34" rx="4" fill="#d45c00"/><rect x="210" y="126" width="34" height="34" rx="4" fill="#dfddd4"/>
      <rect x="0" y="168" width="34" height="34" rx="4" fill="#dfddd4"/><rect x="42" y="168" width="34" height="34" rx="4" fill="#52337c"/><rect x="84" y="168" width="34" height="34" rx="4" fill="#dfddd4"/><rect x="126" y="168" width="34" height="34" rx="4" fill="#dfddd4"/><rect x="168" y="168" width="34" height="34" rx="4" fill="#007078"/><rect x="210" y="168" width="34" height="34" rx="4" fill="#d45c00"/>
      <rect x="0" y="210" width="34" height="34" rx="4" fill="#007078"/><rect x="42" y="210" width="34" height="34" rx="4" fill="#dfddd4"/><rect x="84" y="210" width="34" height="34" rx="4" fill="#d45c00"/><rect x="126" y="210" width="34" height="34" rx="4" fill="#dfddd4"/><rect x="168" y="210" width="34" height="34" rx="4" fill="#dfddd4"/><rect x="210" y="210" width="34" height="34" rx="4" fill="#52337c"/>
    </g>
  </g>
  <text x="80" y="160" fill="#d45c00" font-family="monospace" font-size="28" font-weight="700" letter-spacing="3">MAs-DiT / PREPRINT 2026</text>
  <text x="80" y="270" fill="#111110" font-family="Georgia, serif" font-size="78" font-weight="700">Few Channels</text>
  <text x="80" y="358" fill="#111110" font-family="Georgia, serif" font-size="78" font-weight="700">Draw The Whole</text>
  <text x="80" y="446" fill="#d45c00" font-family="Georgia, serif" font-size="78" font-weight="700" font-style="italic">Picture</text>
  <text x="82" y="520" fill="#363633" font-family="Inter, Arial, sans-serif" font-size="28">Revealing massive activations in Diffusion Transformers</text>
</svg>
